<?xml version="1.0" encoding="UTF-8" standalone="no"?>
<!-- Created with Inkscape (http://www.inkscape.org/) -->

<svg
   width="270mm"
   height="105mm"
   viewBox="-16 0 286 105"
   version="1.1"
   id="svg1"
   xml:space="preserve"
   inkscape:export-filename="GnosisGraph.png"
   inkscape:export-xdpi="192.1"
   inkscape:export-ydpi="192.1"
   sodipodi:docname="logo_letras_bl.svg"
   inkscape:version="1.4.2 (f4327f4, 2025-05-13)"
   xmlns:inkscape="http://www.inkscape.org/namespaces/inkscape"
   xmlns:sodipodi="http://sodipodi.sourceforge.net/DTD/sodipodi-0.dtd"
   xmlns="http://www.w3.org/2000/svg"
   xmlns:svg="http://www.w3.org/2000/svg"><sodipodi:namedview
     id="namedview1"
     pagecolor="#d9d9d9"
     bordercolor="#666666"
     borderopacity="1.0"
     inkscape:showpageshadow="2"
     inkscape:pageopacity="0.0"
     inkscape:pagecheckerboard="0"
     inkscape:deskcolor="#d1d1d1"
     inkscape:document-units="mm"
     showgrid="false"
     showguides="true"
     inkscape:zoom="1.0396254"
     inkscape:cx="665.62439"
     inkscape:cy="465.07137"
     inkscape:window-width="2560"
     inkscape:window-height="1369"
     inkscape:window-x="-8"
     inkscape:window-y="-8"
     inkscape:window-maximized="1"
     inkscape:current-layer="g2" /><defs
     id="defs1" /><g
     id="g2"
     transform="matrix(1.0790069,0,0,1.0790069,-6.3794061,-8.9127494)"><path
       style="font-size:25.4px;line-height:1.25;font-family:Poppins;-inkscape-font-specification:Poppins;letter-spacing:-1.5875px;word-spacing:0px;fill:#ffffff;fill-opacity:1;stroke-width:0.26584"
       d="m 182.16474,31.787257 q 3.61513,0 5.85652,2.332109 2.24138,2.293864 2.24138,6.652222 v 12.348681 h -3.25362 V 41.2686 q 0,-3.134965 -1.4822,-4.778909 -1.48221,-1.682175 -4.04896,-1.682175 -2.6029,0 -4.15741,1.720405 -1.51835,1.720406 -1.51835,5.008293 v 11.584055 h -3.28977 V 32.169563 h 3.28977 v 2.982043 q 0.97608,-1.605713 2.63905,-2.485031 1.69911,-0.879318 3.72359,-0.879318 z m 19.86515,21.677102 q -2.78366,0 -5.06119,-1.3381 -2.2414,-1.338085 -3.54284,-3.784885 -1.2653,-2.485031 -1.2653,-5.734689 0,-3.211412 1.30145,-5.658213 1.3376,-2.485031 3.61513,-3.7849 2.27754,-1.338084 5.09734,-1.338084 2.81981,0 5.09734,1.338084 2.27755,1.299869 3.579,3.74667 1.3376,2.4468 1.3376,5.696443 0,3.249658 -1.37376,5.734689 -1.3376,2.4468 -3.65129,3.784885 -2.31369,1.3381 -5.13348,1.3381 z m 0,-3.058505 q 1.77141,0 3.32591,-0.879318 1.55451,-0.879318 2.49444,-2.637953 0.9761,-1.758636 0.9761,-4.281898 0,-2.523262 -0.93995,-4.281897 -0.93992,-1.758636 -2.45829,-2.599723 -1.51834,-0.879318 -3.28977,-0.879318 -1.80757,0 -3.32592,0.879318 -1.48221,0.841087 -2.386,2.599723 -0.90377,1.758635 -0.90377,4.281897 0,2.561493 0.86762,4.320128 0.90379,1.758636 2.386,2.637954 1.4822,0.841087 3.25363,0.841087 z m 19.25055,3.058505 q -2.27753,0 -4.08509,-0.802857 -1.80757,-0.841087 -2.85597,-2.293878 -1.04838,-1.491008 -1.15684,-3.40258 h 3.39824 q 0.14461,1.567483 1.37374,2.561492 1.26531,0.99401 3.28977,0.99401 1.87987,0 2.96442,-0.879318 1.08454,-0.879318 1.08454,-2.217403 0,-1.37633 -1.15684,-2.026249 -1.15684,-0.688165 -3.579,-1.3381 -2.20522,-0.611704 -3.61513,-1.223393 -1.37375,-0.649934 -2.38598,-1.873342 -0.9761,-1.261623 -0.9761,-3.287873 0,-1.605714 0.90379,-2.943813 0.90379,-1.338085 2.56675,-2.102711 1.66296,-0.802856 3.79589,-0.802856 3.28978,0 5.31426,1.758635 2.02446,1.758636 2.16907,4.817126 h -3.28978 q -0.10845,-1.64393 -1.26529,-2.637954 -1.12069,-0.994009 -3.03671,-0.994009 -1.77142,0 -2.8198,0.802856 -1.0484,0.802857 -1.0484,2.102726 0,1.03224 0.61457,1.720405 0.65073,0.64992 1.59067,1.070471 0.97608,0.382305 2.6752,0.879318 2.13292,0.611703 3.47052,1.223393 1.33761,0.573473 2.27753,1.758635 0.9761,1.185177 1.01225,3.096735 0,1.720406 -0.90379,3.096721 -0.90377,1.37633 -2.56675,2.179186 -1.6268,0.764627 -3.75974,0.764627 z m 11.29729,-24.697361 q -0.93993,0 -1.59066,-0.688165 -0.65072,-0.688165 -0.65072,-1.682175 0,-0.994012 0.65072,-1.682174 0.65073,-0.688162 1.59066,-0.688162 0.90379,0 1.51836,0.688162 0.65072,0.688162 0.65072,1.682174 0,0.99401 -0.65072,1.682175 -0.61457,0.688165 -1.51836,0.688165 z m 1.59066,3.402565 v 20.950706 h -3.28977 V 32.169563 Z m 10.35738,21.294796 q -2.27754,0 -4.0851,-0.802857 -1.80757,-0.841087 -2.85595,-2.293878 -1.0484,-1.491008 -1.15686,-3.40258 h 3.39823 q 0.14461,1.567483 1.37376,2.561492 1.26529,0.99401 3.28977,0.99401 1.87987,0 2.96441,-0.879318 1.08454,-0.879318 1.08454,-2.217403 0,-1.37633 -1.15685,-2.026249 -1.15684,-0.688165 -3.57897,-1.3381 -2.20524,-0.611704 -3.61515,-1.223393 -1.37374,-0.649934 -2.38599,-1.873342 -0.97608,-1.261623 -0.97608,-3.287873 0,-1.605714 0.90378,-2.943813 0.90379,-1.338085 2.56675,-2.102711 1.66297,-0.802856 3.79589,-0.802856 3.28977,0 5.31425,1.758635 2.02448,1.758636 2.16908,4.817126 h -3.28977 q -0.10845,-1.64393 -1.26529,-2.637954 -1.12071,-0.994009 -3.03673,-0.994009 -1.77141,0 -2.8198,0.802856 -1.04838,0.802857 -1.04838,2.102726 0,1.03224 0.61457,1.720405 0.65073,0.64992 1.59066,1.070471 0.97609,0.382305 2.6752,0.879318 2.13293,0.611703 3.47052,1.223393 1.3376,0.573473 2.27755,1.758635 0.97607,1.185177 1.01223,3.096735 0,1.720406 -0.90378,3.096721 -0.90379,1.37633 -2.56675,2.179186 -1.62681,0.764627 -3.75974,0.764627 z"
       id="text1"
       aria-label="nosis" /><path
       style="font-size:25.4px;line-height:1.25;font-family:Poppins;-inkscape-font-specification:Poppins;letter-spacing:-1.5875px;word-spacing:0px;fill:#ffffff;fill-opacity:1;stroke-width:0.26584"
       d="m 175.8021,71.821806 q 0.86763,-1.796866 2.45829,-2.790876 1.62681,-0.994024 3.9405,-0.994024 v 3.593747 h -0.86763 q -5.53116,0 -5.53116,6.346378 v 11.392902 h -3.28977 V 68.419227 h 3.28977 z m 6.70604,6.996313 q 0,-3.211427 1.22915,-5.619997 1.22914,-2.446786 3.36208,-3.784886 2.16909,-1.338099 4.80812,-1.338099 2.6029,0 4.51892,1.185177 1.91603,1.185162 2.85597,2.982029 v -3.823116 h 3.32593 v 20.950706 h -3.32593 v -3.899592 q -0.9761,1.835111 -2.92827,3.058504 -1.91601,1.185163 -4.48276,1.185163 -2.63905,0 -4.77198,-1.376315 -2.13294,-1.37633 -3.36208,-3.861362 -1.22915,-2.485031 -1.22915,-5.658212 z m 16.77424,0.0382 q 0,-2.37034 -0.90379,-4.128975 -0.90378,-1.758636 -2.45829,-2.676185 -1.51835,-0.955779 -3.36208,-0.955779 -1.84372,0 -3.36207,0.917549 -1.51836,0.917548 -2.42214,2.676184 -0.90379,1.758636 -0.90379,4.128975 0,2.40857 0.90379,4.205437 0.90378,1.758635 2.42214,2.714414 1.51835,0.917549 3.36207,0.917549 1.84373,0 3.36208,-0.917549 1.55451,-0.955779 2.45829,-2.714414 0.90379,-1.796867 0.90379,-4.167206 z m 9.92355,-6.575776 q 0.9761,-1.796866 2.89212,-2.982029 1.95218,-1.223407 4.51892,-1.223407 2.63904,0 4.77197,1.338099 2.16909,1.338099 3.39824,3.784885 1.22914,2.40857 1.22914,5.619997 0,3.173182 -1.22914,5.658213 -1.22915,2.485031 -3.39824,3.861361 -2.13293,1.376316 -4.77197,1.376316 -2.53059,0 -4.48277,-1.185163 -1.91602,-1.223393 -2.92827,-3.020259 v 13.801461 h -3.28977 v -30.89082 h 3.28977 z m 13.44831,6.537545 q 0,-2.370339 -0.90379,-4.128975 -0.90377,-1.758636 -2.45829,-2.676184 -1.51835,-0.917549 -3.36206,-0.917549 -1.80758,0 -3.36208,0.955779 -1.51837,0.917549 -2.4583,2.714415 -0.90379,1.758636 -0.90379,4.090745 0,2.370339 0.90379,4.167206 0.93993,1.758635 2.4583,2.714414 1.5545,0.917549 3.36208,0.917549 1.84371,0 3.36206,-0.917549 1.55452,-0.955779 2.45829,-2.714414 0.90379,-1.796867 0.90379,-4.205437 z m 15.27397,-10.781183 q 2.24137,0 4.04895,1.032255 1.80757,0.99401 2.8198,3.020259 1.04838,2.02625 1.04838,4.931832 v 12.348681 h -3.2536 V 77.51825 q 0,-3.134951 -1.48222,-4.778895 -1.48221,-1.682175 -4.04895,-1.682175 -2.6029,0 -4.1574,1.720405 -1.51836,1.720405 -1.51836,5.008293 v 11.584055 h -3.28978 V 61.078825 h 3.28978 v 10.32243 q 0.97609,-1.605713 2.6752,-2.485031 1.73526,-0.879318 3.8682,-0.879319 z"
       id="text1-8"
       aria-label="raph" /><path
       style="font-size:78.1105px;line-height:1.25;font-family:Poppins;-inkscape-font-specification:Poppins;fill:#ffffff;fill-opacity:1;stroke-width:2.85819"
       d="m 151.8297,40.584749 q -3.31548,-6.973918 -9.60342,-10.746699 -6.28797,-3.887093 -14.63381,-3.887093 -8.34583,0 -15.0911,3.887093 -6.63094,3.772781 -10.51803,10.975351 -3.772775,7.088244 -3.772775,16.463019 0,9.374775 3.772775,16.463019 3.88709,7.088244 10.51803,10.975351 6.74527,3.772781 15.0911,3.772781 11.66131,0 19.20687,-6.973918 7.54554,-6.973919 8.80313,-18.863876 H 123.8197 v -8.460169 h 42.87245 v 8.002851 q -0.91461,9.832093 -6.17364,18.063595 -5.25902,8.117191 -13.83351,12.918904 -8.57448,4.687388 -19.09253,4.687388 -11.08968,0 -20.2358,-5.144691 -9.146105,-5.259031 -14.519452,-14.51948 -5.259021,-9.260449 -5.259021,-20.921755 0,-11.661306 5.259021,-20.921755 5.373347,-9.374775 14.519452,-14.519469 9.14612,-5.259021 20.2358,-5.259021 12.69025,0 22.408,6.287959 9.83208,6.287961 14.29082,17.720615 z"
       id="text3"
       aria-label="G" /></g><g
     inkscape:label="original"
     inkscape:groupmode="layer"
     id="layer1"
     style="display:inline"
     transform="translate(-51.408741,-23.159384)"><rect
       style="display:inline;fill:#ffffff;fill-opacity:1;fill-rule:evenodd;stroke:none;stroke-width:3.47952;stroke-linecap:butt;stroke-linejoin:miter;stroke-miterlimit:0;stroke-dasharray:none;stroke-dashoffset:0;stroke-opacity:1;paint-order:stroke markers fill"
       id="rect8-7"
       width="38.054817"
       height="21.215267"
       x="87.725327"
       y="-24.452848"
       transform="matrix(0.48582387,0.87405673,-0.87702207,0.48045008,51.408741,23.159384)"
       ry="10.607634"
       rx="10.369624" /><circle
       style="display:inline;fill:#ffffff;fill-opacity:1;fill-rule:evenodd;stroke:none;stroke-width:6.55145;stroke-linecap:butt;stroke-linejoin:miter;stroke-miterlimit:0;stroke-dasharray:none;stroke-dashoffset:0;stroke-opacity:1;paint-order:stroke markers fill"
       id="path52"
       cx="94.193565"
       cy="67.503784"
       r="42.092709" /><g
       id="g4"
       inkscape:label="RECTAS"
       transform="translate(-3.2392398,-78.28163)"><g
         id="g3"
         style="display:inline"><path
           style="display:inline;fill:#ffffff;fill-opacity:1;fill-rule:evenodd;stroke:#ffffff;stroke-width:1.84043;stroke-linecap:round;stroke-linejoin:miter;stroke-miterlimit:0;stroke-dasharray:none;stroke-dashoffset:0;stroke-opacity:1;paint-order:stroke markers fill"
           id="path2-1"
           sodipodi:type="arc"
           sodipodi:cx="97.800911"
           sodipodi:cy="145.80992"
           sodipodi:rx="32.525002"
           sodipodi:ry="32.716831"
           sodipodi:start="0"
           sodipodi:end="6.2750742"
           sodipodi:arc-type="arc"
           d="M 130.32591,145.80992 A 32.525002,32.716831 0 0 1 97.866864,178.52669 32.525002,32.716831 0 0 1 65.276177,145.94261 32.525002,32.716831 0 0 1 97.603052,113.0937 32.525002,32.716831 0 0 1 130.32484,145.54455"
           sodipodi:open="true" /><rect
           style="fill:#000000;fill-opacity:1;fill-rule:evenodd;stroke:none;stroke-width:3;stroke-linecap:butt;stroke-linejoin:miter;stroke-miterlimit:0;stroke-dasharray:none;stroke-dashoffset:0;stroke-opacity:1;paint-order:stroke markers fill"
           id="rect8"
           width="32.874001"
           height="18.25625"
           x="206.54781"
           y="-22.152882"
           transform="rotate(61.109707)"
           ry="9.1281252"
           rx="8.9578943" /><path
           fill="none"
           stroke="#4a7a1e"
           stroke-width="28"
           style="color:#ffffff;font-weight:400;font-size:16px;font-family:'Anthropic Sans', '-apple-system', BlinkMacSystemFont, 'Segoe UI', sans-serif;dominant-baseline:auto;text-anchor:start;fill:#000000;fill-opacity:1;fill-rule:evenodd;stroke:#000000;stroke-width:27.9987;stroke-linecap:round;stroke-linejoin:miter;stroke-dasharray:none;stroke-opacity:1;paint-order:stroke markers fill"
           id="circle1-1"
           sodipodi:type="arc"
           sodipodi:cx="200"
           sodipodi:cy="200"
           sodipodi:rx="140"
           sodipodi:ry="140"
           sodipodi:start="4.712389"
           sodipodi:end="1.5707963"
           sodipodi:arc-type="slice"
           d="M 200,60 A 140,140 0 0 1 340,200 140,140 0 0 1 200,340 V 200 Z"
           inkscape:highlight-color="#000000"
           transform="matrix(0.26458333,0,0,0.26458333,44.636121,92.893237)" /><path
           style="display:inline;fill:none;fill-opacity:1;fill-rule:evenodd;stroke:#ffffff;stroke-width:1.81955;stroke-linecap:round;stroke-linejoin:miter;stroke-miterlimit:0;stroke-dasharray:none;stroke-dashoffset:0;stroke-opacity:1;paint-order:stroke markers fill"
           id="path2"
           sodipodi:type="arc"
           sodipodi:cx="94.105911"
           sodipodi:cy="145.80992"
           sodipodi:rx="16.50758"
           sodipodi:ry="32.506393"
           sodipodi:start="0"
           sodipodi:end="6.2750742"
           sodipodi:arc-type="arc"
           d="m 110.61349,145.80992 a 16.50758,32.506393 0 0 1 -16.474105,32.50633 16.50758,32.506393 0 0 1 -16.540918,-32.3745 16.50758,32.506393 0 0 1 16.407024,-32.63762 16.50758,32.506393 0 0 1 16.607459,32.24213"
           sodipodi:open="true" /><rect
           style="fill:#ffffff;fill-opacity:1;fill-rule:evenodd;stroke:none;stroke-width:0;stroke-linecap:butt;stroke-linejoin:round;stroke-miterlimit:0;stroke-dasharray:none;stroke-dashoffset:0;stroke-opacity:1;paint-order:stroke markers fill"
           id="rect3"
           width="37.686001"
           height="1.8581614"
           x="93.560364"
           y="144.88083"
           ry="0" /><path
           style="display:inline;fill:none;fill-opacity:1;fill-rule:evenodd;stroke:#ffffff;stroke-width:1.81955;stroke-linecap:round;stroke-linejoin:miter;stroke-miterlimit:0;stroke-dasharray:none;stroke-dashoffset:0;stroke-opacity:1;paint-order:stroke markers fill"
           id="path2-2"
           sodipodi:type="arc"
           sodipodi:cx="-145.80992"
           sodipodi:cy="97.800919"
           sodipodi:rx="16.50758"
           sodipodi:ry="32.506393"
           sodipodi:start="0"
           sodipodi:end="6.2750742"
           sodipodi:arc-type="arc"
           d="m -129.30234,97.800919 a 16.50758,32.506393 0 0 1 -16.47411,32.506331 16.50758,32.506393 0 0 1 -16.54092,-32.3745 16.50758,32.506393 0 0 1 16.40703,-32.637623 16.50758,32.506393 0 0 1 16.60746,32.242132"
           sodipodi:open="true"
           transform="rotate(-90)" /></g><rect
         style="fill:#4a7a1e;fill-opacity:1;fill-rule:evenodd;stroke:none;stroke-width:0;stroke-linecap:butt;stroke-linejoin:round;stroke-miterlimit:0;stroke-dasharray:none;stroke-dashoffset:0;stroke-opacity:1;paint-order:stroke markers fill"
         id="rect3-74-0"
         width="13.997267"
         height="2.039727"
         x="-163.93579"
         y="5.4888678"
         ry="0"
         transform="matrix(-0.49064549,-0.87135928,0.8729691,-0.48777551,0,0)" /><rect
         style="fill:#4a7a1e;fill-opacity:1;fill-rule:evenodd;stroke:none;stroke-width:0;stroke-linecap:butt;stroke-linejoin:round;stroke-miterlimit:0;stroke-dasharray:none;stroke-dashoffset:0;stroke-opacity:1;paint-order:stroke markers fill"
         id="rect3-74-0-8"
         width="13.997267"
         height="2.039727"
         x="-70.049133"
         y="131.54875"
         ry="0"
         transform="matrix(0.49848565,-0.86689795,0.86525292,0.5013356,0,0)" /><rect
         style="fill:#4a7a1e;fill-opacity:1;fill-rule:evenodd;stroke:none;stroke-width:0;stroke-linecap:butt;stroke-linejoin:round;stroke-miterlimit:0;stroke-dasharray:none;stroke-dashoffset:0;stroke-opacity:1;paint-order:stroke markers fill"
         id="rect3-74-0-8-2"
         width="13.997267"
         height="2.039727"
         x="-43.534004"
         y="176.32736"
         ry="0"
         transform="matrix(0.75573804,-0.65487405,0.65238364,0.7578889,0,0)" /><rect
         style="fill:#4a7a1e;fill-opacity:1;fill-rule:evenodd;stroke:none;stroke-width:0;stroke-linecap:butt;stroke-linejoin:round;stroke-miterlimit:0;stroke-dasharray:none;stroke-dashoffset:0;stroke-opacity:1;paint-order:stroke markers fill"
         id="rect3-74-0-8-7"
         width="13.997267"
         height="2.039727"
         x="164.84842"
         y="-4.7872367"
         ry="0"
         transform="matrix(0.50495393,0.86314629,-0.86480324,0.5021109,0,0)" /><rect
         style="fill:#4a7a1e;fill-opacity:1;fill-rule:evenodd;stroke:none;stroke-width:0;stroke-linecap:butt;stroke-linejoin:round;stroke-miterlimit:0;stroke-dasharray:none;stroke-dashoffset:0;stroke-opacity:1;paint-order:stroke markers fill"
         id="rect3-74-0-8-6"
         width="13.997267"
         height="2.039727"
         x="-198.10744"
         y="0.6697194"
         ry="0"
         transform="matrix(-0.4371702,-0.8993788,0.90081249,-0.4342083,0,0)" /><rect
         style="fill:#4a7a1e;fill-opacity:1;fill-rule:evenodd;stroke:none;stroke-width:0;stroke-linecap:butt;stroke-linejoin:round;stroke-miterlimit:0;stroke-dasharray:none;stroke-dashoffset:0;stroke-opacity:1;paint-order:stroke markers fill"
         id="rect3-74-0-84"
         width="13.997267"
         height="2.039727"
         x="-112.2256"
         y="128.81895"
         ry="0"
         transform="matrix(0.44078513,-0.89761265,0.89615732,0.44373647,0,0)" /><rect
         style="fill:#4a7a1e;fill-opacity:1;fill-rule:evenodd;stroke:none;stroke-width:0;stroke-linecap:butt;stroke-linejoin:round;stroke-miterlimit:0;stroke-dasharray:none;stroke-dashoffset:0;stroke-opacity:1;paint-order:stroke markers fill"
         id="rect3-74-0-88"
         width="13.997267"
         height="2.039727"
         x="-160.07112"
         y="-27.903841"
         ry="0"
         transform="matrix(-0.60058355,-0.79956201,0.80153398,-0.59794923,0,0)" /><rect
         style="fill:#4a7a1e;fill-opacity:1;fill-rule:evenodd;stroke:none;stroke-width:0;stroke-linecap:butt;stroke-linejoin:round;stroke-miterlimit:0;stroke-dasharray:none;stroke-dashoffset:0;stroke-opacity:1;paint-order:stroke markers fill"
         id="rect3-74-0-6"
         width="13.997267"
         height="2.039727"
         x="26.697479"
         y="158.54976"
         ry="0"
         transform="matrix(0.95267254,-0.30399842,0.30086187,0.95366773,0,0)" /></g><g
       id="g1"
       transform="matrix(0.26458333,0,0,0.26458333,41.396879,14.611606)"
       style="display:inline"><path
         style="display:inline;fill:none;fill-opacity:1;fill-rule:evenodd;stroke:#ffffff;stroke-width:6.95596;stroke-linecap:round;stroke-linejoin:miter;stroke-miterlimit:0;stroke-dasharray:none;stroke-dashoffset:0;stroke-opacity:1;paint-order:stroke markers fill"
         id="path2-1-3"
         sodipodi:type="arc"
         sodipodi:cx="200.93779"
         sodipodi:cy="200.00008"
         sodipodi:rx="122.92914"
         sodipodi:ry="123.65417"
         sodipodi:start="0"
         sodipodi:end="6.2750742"
         sodipodi:arc-type="arc"
         d="M 323.86693,200.00008 A 122.92914,123.65417 0 0 1 201.18706,323.65399 122.92914,123.65417 0 0 1 78.009663,200.50156 122.92914,123.65417 0 0 1 200.18998,76.348197 122.92914,123.65417 0 0 1 323.86288,198.99712"
         sodipodi:open="true"
         transform="translate(4.3307087e-6)" /><path
         fill="none"
         stroke="#4a7a1e"
         stroke-width="28"
         style="color:#ffffff;font-weight:400;font-size:16px;font-family:'Anthropic Sans', '-apple-system', BlinkMacSystemFont, 'Segoe UI', sans-serif;dominant-baseline:auto;text-anchor:start;display:inline;opacity:1;fill:none;stroke:#4a7a1e;stroke-width:28px;stroke-linecap:butt;stroke-linejoin:miter"
         id="circle1"
         sodipodi:type="arc"
         sodipodi:cx="151.35864"
         sodipodi:cy="240.09129"
         sodipodi:rx="140"
         sodipodi:ry="140"
         sodipodi:start="1.9198622"
         sodipodi:end="4.8171087"
         sodipodi:arc-type="arc"
         d="M 103.47582,371.64826 A 140,140 0 0 1 14.946833,208.59815 140,140 0 0 1 165.99262,100.85823"
         transform="rotate(-13.0075,6.750661e-5,3.549459e-4)"
         sodipodi:open="true" /><g
         id="g7"
         inkscape:label="EXTERIOR"
         style="display:inline"><circle
           fill="white"
           style="color:#ffffff;font-weight:400;font-size:16px;font-family:'Anthropic Sans', '-apple-system', BlinkMacSystemFont, 'Segoe UI', sans-serif;dominant-baseline:auto;text-anchor:start;opacity:1;fill:#ffffff;stroke:none;stroke-width:1px;stroke-linecap:butt;stroke-linejoin:miter"
           id="circle2"
           transform="rotate(-13.0075)"
           cx="151.35864"
           cy="100.0913"
           r="30" /><circle
           fill="#4a7a1e"
           style="color:#ffffff;font-weight:400;font-size:16px;font-family:'Anthropic Sans', '-apple-system', BlinkMacSystemFont, 'Segoe UI', sans-serif;dominant-baseline:auto;text-anchor:start;opacity:1;fill:#4a7a1e;stroke:none;stroke-width:1px;stroke-linecap:butt;stroke-linejoin:miter"
           id="circle3"
           cx="151.35864"
           cy="100.0913"
           r="24"
           transform="rotate(-13.0075)" /><circle
           cx="260.95865"
           cy="152.8913"
           r="30"
           fill="white"
           style="color:#ffffff;font-weight:400;font-size:16px;font-family:'Anthropic Sans', '-apple-system', BlinkMacSystemFont, 'Segoe UI', sans-serif;dominant-baseline:auto;text-anchor:start;display:none;opacity:1;fill:#ffffff;stroke:none;stroke-width:1px;stroke-linecap:butt;stroke-linejoin:miter"
           id="circle4"
           transform="rotate(-13.0075)" /><circle
           cx="260.95865"
           cy="152.8913"
           r="24"
           fill="#4a7a1e"
           style="color:#ffffff;font-weight:400;font-size:16px;font-family:'Anthropic Sans', '-apple-system', BlinkMacSystemFont, 'Segoe UI', sans-serif;dominant-baseline:auto;text-anchor:start;display:none;opacity:1;fill:#4a7a1e;stroke:none;stroke-width:1px;stroke-linecap:butt;stroke-linejoin:miter"
           id="circle5"
           transform="rotate(-13.0075)" /><circle
           cx="287.75864"
           cy="271.29132"
           r="30"
           fill="white"
           style="color:#ffffff;font-weight:400;font-size:16px;font-family:'Anthropic Sans', '-apple-system', BlinkMacSystemFont, 'Segoe UI', sans-serif;dominant-baseline:auto;text-anchor:start;display:none;opacity:1;fill:#ffffff;stroke:none;stroke-width:1px;stroke-linecap:butt;stroke-linejoin:miter"
           id="circle6"
           transform="rotate(-13.0075)" /><circle
           cx="287.75864"
           cy="271.29132"
           r="24"
           fill="#4a7a1e"
           style="color:#ffffff;font-weight:400;font-size:16px;font-family:'Anthropic Sans', '-apple-system', BlinkMacSystemFont, 'Segoe UI', sans-serif;dominant-baseline:auto;text-anchor:start;display:none;opacity:1;fill:#4a7a1e;stroke:none;stroke-width:1px;stroke-linecap:butt;stroke-linejoin:miter"
           id="circle7"
           transform="rotate(-13.0075)" /><circle
           cx="211.85864"
           cy="366.3913"
           r="30"
           fill="white"
           style="color:#ffffff;font-weight:400;font-size:16px;font-family:'Anthropic Sans', '-apple-system', BlinkMacSystemFont, 'Segoe UI', sans-serif;dominant-baseline:auto;text-anchor:start;display:none;opacity:1;fill:#ffffff;stroke:none;stroke-width:1px;stroke-linecap:butt;stroke-linejoin:miter"
           id="circle8"
           transform="rotate(-13.0075)" /><circle
           cx="211.85864"
           cy="366.3913"
           r="24"
           fill="#4a7a1e"
           style="color:#ffffff;font-weight:400;font-size:16px;font-family:'Anthropic Sans', '-apple-system', BlinkMacSystemFont, 'Segoe UI', sans-serif;dominant-baseline:auto;text-anchor:start;display:none;opacity:1;fill:#4a7a1e;stroke:none;stroke-width:1px;stroke-linecap:butt;stroke-linejoin:miter"
           id="circle9"
           transform="rotate(-13.0075)" /><circle
           cx="90.858643"
           cy="366.3913"
           r="30"
           fill="white"
           style="color:#ffffff;font-weight:400;font-size:16px;font-family:'Anthropic Sans', '-apple-system', BlinkMacSystemFont, 'Segoe UI', sans-serif;dominant-baseline:auto;text-anchor:start;opacity:1;fill:#ffffff;stroke:none;stroke-width:1px;stroke-linecap:butt;stroke-linejoin:miter"
           id="circle10"
           transform="rotate(-13.0075)" /><circle
           cx="90.858643"
           cy="366.3913"
           r="24"
           fill="#4a7a1e"
           style="color:#ffffff;font-weight:400;font-size:16px;font-family:'Anthropic Sans', '-apple-system', BlinkMacSystemFont, 'Segoe UI', sans-serif;dominant-baseline:auto;text-anchor:start;opacity:1;fill:#4a7a1e;stroke:none;stroke-width:1px;stroke-linecap:butt;stroke-linejoin:miter"
           id="circle11"
           transform="rotate(-13.0075)" /><circle
           cx="14.958643"
           cy="271.29132"
           r="30"
           fill="white"
           style="color:#ffffff;font-weight:400;font-size:16px;font-family:'Anthropic Sans', '-apple-system', BlinkMacSystemFont, 'Segoe UI', sans-serif;dominant-baseline:auto;text-anchor:start;opacity:1;fill:#ffffff;stroke:none;stroke-width:1px;stroke-linecap:butt;stroke-linejoin:miter"
           id="circle12"
           transform="rotate(-13.0075)" /><circle
           cx="14.958643"
           cy="271.29132"
           r="24"
           fill="#4a7a1e"
           style="color:#ffffff;font-weight:400;font-size:16px;font-family:'Anthropic Sans', '-apple-system', BlinkMacSystemFont, 'Segoe UI', sans-serif;dominant-baseline:auto;text-anchor:start;opacity:1;fill:#4a7a1e;stroke:none;stroke-width:1px;stroke-linecap:butt;stroke-linejoin:miter"
           id="circle13"
           transform="rotate(-13.0075)" /><circle
           cx="41.758644"
           cy="152.8913"
           r="30"
           fill="white"
           style="color:#ffffff;font-weight:400;font-size:16px;font-family:'Anthropic Sans', '-apple-system', BlinkMacSystemFont, 'Segoe UI', sans-serif;dominant-baseline:auto;text-anchor:start;opacity:1;fill:#ffffff;stroke:none;stroke-width:1px;stroke-linecap:butt;stroke-linejoin:miter"
           id="circle14"
           transform="rotate(-13.0075)" /><circle
           cx="41.758644"
           cy="152.8913"
           r="24"
           fill="#4a7a1e"
           style="color:#ffffff;font-weight:400;font-size:16px;font-family:'Anthropic Sans', '-apple-system', BlinkMacSystemFont, 'Segoe UI', sans-serif;dominant-baseline:auto;text-anchor:start;opacity:1;fill:#4a7a1e;stroke:none;stroke-width:1px;stroke-linecap:butt;stroke-linejoin:miter"
           id="circle15"
           transform="rotate(-13.0075)" /></g><g
         id="g5"
         inkscape:label="PUNTOS"><circle
           cx="99.139954"
           cy="157.77444"
           r="14.44365"
           fill="white"
           style="color:#ffffff;font-weight:400;font-size:16px;font-family:'Anthropic Sans', '-apple-system', BlinkMacSystemFont, 'Segoe UI', sans-serif;dominant-baseline:auto;text-anchor:start;display:inline;fill:#ffffff;stroke:none;stroke-width:0.481455px;stroke-linecap:butt;stroke-linejoin:miter"
           id="circle14-3"
           transform="rotate(-13.0075)" /><circle
           cx="99.139954"
           cy="157.77444"
           r="11.55492"
           fill="#4a7a1e"
           style="color:#ffffff;font-weight:400;font-size:16px;font-family:'Anthropic Sans', '-apple-system', BlinkMacSystemFont, 'Segoe UI', sans-serif;dominant-baseline:auto;text-anchor:start;display:inline;fill:#4a7a1e;stroke:none;stroke-width:0.481455px;stroke-linecap:butt;stroke-linejoin:miter"
           id="circle15-1"
           transform="rotate(-13.0075)" /><circle
           cx="113.36316"
           cy="208.18439"
           r="14.44365"
           fill="white"
           style="color:#ffffff;font-weight:400;font-size:16px;font-family:'Anthropic Sans', '-apple-system', BlinkMacSystemFont, 'Segoe UI', sans-serif;dominant-baseline:auto;text-anchor:start;display:inline;fill:#ffffff;stroke:none;stroke-width:0.481455px;stroke-linecap:butt;stroke-linejoin:miter"
           id="circle14-3-0"
           transform="rotate(-13.0075)" /><circle
           cx="113.36316"
           cy="208.18439"
           r="11.55492"
           fill="#4a7a1e"
           style="color:#ffffff;font-weight:400;font-size:16px;font-family:'Anthropic Sans', '-apple-system', BlinkMacSystemFont, 'Segoe UI', sans-serif;dominant-baseline:auto;text-anchor:start;display:inline;fill:#4a7a1e;stroke:none;stroke-width:0.481455px;stroke-linecap:butt;stroke-linejoin:miter"
           id="circle15-1-2"
           transform="rotate(-13.0075)" /><circle
           cx="66.286781"
           cy="212.258"
           r="14.44365"
           fill="white"
           style="color:#ffffff;font-weight:400;font-size:16px;font-family:'Anthropic Sans', '-apple-system', BlinkMacSystemFont, 'Segoe UI', sans-serif;dominant-baseline:auto;text-anchor:start;display:inline;fill:#ffffff;stroke:none;stroke-width:0.481455px;stroke-linecap:butt;stroke-linejoin:miter"
           id="circle14-3-4"
           transform="rotate(-13.0075)" /><circle
           cx="66.286781"
           cy="212.258"
           r="11.55492"
           fill="#4a7a1e"
           style="color:#ffffff;font-weight:400;font-size:16px;font-family:'Anthropic Sans', '-apple-system', BlinkMacSystemFont, 'Segoe UI', sans-serif;dominant-baseline:auto;text-anchor:start;display:inline;fill:#4a7a1e;stroke:none;stroke-width:0.481455px;stroke-linecap:butt;stroke-linejoin:miter"
           id="circle15-1-8"
           transform="rotate(-13.0075)" /><circle
           cx="130.95468"
           cy="262.90143"
           r="14.44365"
           fill="white"
           style="color:#ffffff;font-weight:400;font-size:16px;font-family:'Anthropic Sans', '-apple-system', BlinkMacSystemFont, 'Segoe UI', sans-serif;dominant-baseline:auto;text-anchor:start;display:inline;fill:#ffffff;stroke:none;stroke-width:0.481455px;stroke-linecap:butt;stroke-linejoin:miter"
           id="circle14-3-4-5"
           transform="rotate(-13.0075)" /><circle
           cx="130.95468"
           cy="262.90143"
           r="11.55492"
           fill="#4a7a1e"
           style="color:#ffffff;font-weight:400;font-size:16px;font-family:'Anthropic Sans', '-apple-system', BlinkMacSystemFont, 'Segoe UI', sans-serif;dominant-baseline:auto;text-anchor:start;display:inline;fill:#4a7a1e;stroke:none;stroke-width:0.481455px;stroke-linecap:butt;stroke-linejoin:miter"
           id="circle15-1-8-9"
           transform="rotate(-13.0075)" /><circle
           cx="75.297417"
           cy="292.33209"
           r="14.44365"
           fill="white"
           style="color:#ffffff;font-weight:400;font-size:16px;font-family:'Anthropic Sans', '-apple-system', BlinkMacSystemFont, 'Segoe UI', sans-serif;dominant-baseline:auto;text-anchor:start;display:inline;fill:#ffffff;stroke:none;stroke-width:0.481455px;stroke-linecap:butt;stroke-linejoin:miter"
           id="circle14-3-4-5-6"
           transform="rotate(-13.0075)" /><circle
           cx="75.297417"
           cy="292.33209"
           r="11.55492"
           fill="#4a7a1e"
           style="color:#ffffff;font-weight:400;font-size:16px;font-family:'Anthropic Sans', '-apple-system', BlinkMacSystemFont, 'Segoe UI', sans-serif;dominant-baseline:auto;text-anchor:start;display:inline;fill:#4a7a1e;stroke:none;stroke-width:0.481455px;stroke-linecap:butt;stroke-linejoin:miter"
           id="circle15-1-8-9-3"
           transform="rotate(-13.0075)" /></g></g><g
       id="g6"
       inkscape:label="BRUJULA"
       transform="matrix(0.77414052,0,0,1.1810539,20.346704,-25.987899)"
       style="display:none;stroke:#ffffff;stroke-width:2;stroke-linecap:butt;stroke-linejoin:miter;stroke-dasharray:none;stroke-opacity:1"><path
         sodipodi:type="star"
         style="fill:#4a7a1e;fill-opacity:1;fill-rule:evenodd;stroke:none;stroke-width:2.46368;stroke-linecap:butt;stroke-linejoin:miter;stroke-miterlimit:0;stroke-dasharray:none;stroke-dashoffset:0;stroke-opacity:1;paint-order:stroke markers fill"
         id="path7"
         inkscape:flatsided="false"
         sodipodi:sides="2"
         sodipodi:cx="109.23503"
         sodipodi:cy="130.67204"
         sodipodi:r1="16.819077"
         sodipodi:r2="3.4643457"
         sodipodi:arg1="1.5132888"
         sodipodi:arg2="3.0840851"
         inkscape:rounded="0.02"
         inkscape:randomized="0"
         d="m 110.20172,147.46332 c -0.34287,0.0197 -4.40557,-16.24929 -4.42531,-16.59216 -0.0197,-0.34288 2.14906,-16.97065 2.49193,-16.99039 0.34288,-0.0197 4.40557,16.24928 4.42531,16.59216 0.0197,0.34287 -2.14905,16.97065 -2.49193,16.99039 z"
         transform="matrix(1.0888405,-0.42177742,0.98170988,1.0888405,-148.13998,49.253303)" /><path
         sodipodi:type="star"
         style="fill:#ffffff;fill-opacity:1;fill-rule:evenodd;stroke:none;stroke-width:2.46368;stroke-linecap:butt;stroke-linejoin:miter;stroke-miterlimit:0;stroke-dasharray:none;stroke-dashoffset:0;stroke-opacity:1;paint-order:stroke markers fill"
         id="path7-1"
         inkscape:flatsided="false"
         sodipodi:sides="2"
         sodipodi:cx="109.23503"
         sodipodi:cy="130.67204"
         sodipodi:r1="16.819077"
         sodipodi:r2="3.4643457"
         sodipodi:arg1="1.5132888"
         sodipodi:arg2="3.0840851"
         inkscape:rounded="0.02"
         inkscape:randomized="0"
         d="m 110.20172,147.46332 c -0.34287,0.0197 -4.40557,-16.24929 -4.42531,-16.59216 -0.0197,-0.34288 2.14906,-16.97065 2.49193,-16.99039 0.34288,-0.0197 4.40557,16.24928 4.42531,16.59216 0.0197,0.34287 -2.14905,16.97065 -2.49193,16.99039 z"
         transform="matrix(0.65466006,-0.25359163,0.5902483,0.65466006,-49.559182,87.616767)" /></g></g></svg>
